HIERARCHY
ROOT Hips
{
	OFFSET 0.000000 0.000000 0.000000
	CHANNELS 6 Xposition Yposition Zposition Zrotation Yrotation Xrotation 
	JOINT LHipJoint
	{
		OFFSET 0.000000 0.000000 0.000000
		CHANNELS 3 Zrotation Yrotation Xrotation
		JOINT LeftUpLeg
		{
			OFFSET 1.363060 -1.794630 0.839290
			CHANNELS 3 Zrotation Yrotation Xrotation
			JOINT LeftLeg
			{
				OFFSET 2.448110 -6.726130 0.000000
				CHANNELS 3 Zrotation Yrotation Xrotation
				JOINT LeftFoot
				{
					OFFSET 2.562200 -7.039590 0.000000
					CHANNELS 3 Zrotation Yrotation Xrotation
					JOINT LeftToeBase
					{
						OFFSET 0.157640 -0.433110 2.322550
						CHANNELS 3 Zrotation Yrotation Xrotation
						End Site
						{
							OFFSET 0.000000 0.000000 0.000000
						}
					}
				}
			}
		}
	}
	JOINT RHipJoint
	{
		OFFSET 0.000000 0.000000 0.000000
		CHANNELS 3 Zrotation Yrotation Xrotation
		JOINT RightUpLeg
		{
			OFFSET -1.305520 -1.794630 0.839290
			CHANNELS 3 Zrotation Yrotation Xrotation
			JOINT RightLeg
			{
				OFFSET -2.542530 -6.985550 0.000000
				CHANNELS 3 Zrotation Yrotation Xrotation
				JOINT RightFoot
				{
					OFFSET -2.568260 -7.056230 0.000000
					CHANNELS 3 Zrotation Yrotation Xrotation
					JOINT RightToeBase
					{
						OFFSET -0.164730 -0.452590 2.363150
						CHANNELS 3 Zrotation Yrotation Xrotation
						End Site
						{
							OFFSET 0.000000 0.000000 0.000000
						}
					}
				}
			}
		}
	}
	JOINT LowerBack
	{
		OFFSET 0.000000 0.000000 0.000000
		CHANNELS 3 Zrotation Yrotation Xrotation
		JOINT Spine
		{
			OFFSET 0.028270 2.035590 -0.193380
			CHANNELS 3 Zrotation Yrotation Xrotation
			JOINT Spine1
			{
				OFFSET 0.056720 2.048850 -0.042750
				CHANNELS 3 Zrotation Yrotation Xrotation
				JOINT Neck
				{
					OFFSET 0.000000 0.000000 0.000000
					CHANNELS 3 Zrotation Yrotation Xrotation
					JOINT Neck1
					{
						OFFSET -0.054170 1.746240 0.172020
						CHANNELS 3 Zrotation Yrotation Xrotation
						JOINT Head
						{
							OFFSET 0.104070 1.761360 -0.123970
							CHANNELS 3 Zrotation Yrotation Xrotation
							End Site
							{
								OFFSET 0.000000 0.000000 0.000000
							}
						}
					}
				}
				JOINT LeftShoulder
				{
					OFFSET 0.000000 0.000000 0.000000
					CHANNELS 3 Zrotation Yrotation Xrotation
					JOINT LeftArm
					{
						OFFSET 3.362410 1.200890 -0.311210
						CHANNELS 3 Zrotation Yrotation Xrotation
						JOINT LeftForeArm
						{
							OFFSET 4.983000 -0.000000 -0.000000
							CHANNELS 3 Zrotation Yrotation Xrotation
							JOINT LeftHand
							{
								OFFSET 3.483560 -0.000000 -0.000000
								CHANNELS 3 Zrotation Yrotation Xrotation
								JOINT LeftFingerBase
								{
									OFFSET 0.000000 0.000000 0.000000
									CHANNELS 3 Zrotation Yrotation Xrotation
									JOINT LeftHandIndex1
									{
										OFFSET 0.715260 -0.000000 -0.000000
										CHANNELS 3 Zrotation Yrotation Xrotation
										End Site
										{
											OFFSET 0.000000 0.000000 0.000000
										}
									}
								}
								JOINT LThumb
								{
									OFFSET 0.000000 0.000000 0.000000
									CHANNELS 3 Zrotation Yrotation Xrotation
									End Site
									{
										OFFSET 0.000000 0.000000 0.000000
									}
								}
							}
						}
					}
				}
				JOINT RightShoulder
				{
					OFFSET 0.000000 0.000000 0.000000
					CHANNELS 3 Zrotation Yrotation Xrotation
					JOINT RightArm
					{
						OFFSET -3.136600 1.374050 -0.404650
						CHANNELS 3 Zrotation Yrotation Xrotation
						JOINT RightForeArm
						{
							OFFSET -5.241900 -0.000000 -0.000000
							CHANNELS 3 Zrotation Yrotation Xrotation
							JOINT RightHand
							{
								OFFSET -3.444170 -0.000000 -0.000000
								CHANNELS 3 Zrotation Yrotation Xrotation
								JOINT RightFingerBase
								{
									OFFSET 0.000000 0.000000 0.000000
									CHANNELS 3 Zrotation Yrotation Xrotation
									JOINT RightHandIndex1
									{
										OFFSET -0.622530 -0.000000 -0.000000
										CHANNELS 3 Zrotation Yrotation Xrotation
										End Site
										{
											OFFSET 0.000000 0.000000 0.000000
										}
									}
								}
								JOINT RThumb
								{
									OFFSET 0.000000 0.000000 0.000000
									CHANNELS 3 Zrotation Yrotation Xrotation
									End Site
									{
										OFFSET 0.000000 0.000000 0.000000
									}
								}
							}
						}
					}
				}
			}
		}
	}
}
MOTION
Frames: 12
Frame Time: 0.008333
0.234964 23.863405 -7.344938 -1.787392 0.451672 8.280759 -0.525077 -0.889759 -0.453996 -13.140990 3.887947 -31.677693 0.930691 9.313638 25.023338 1.144642 7.115669 26.549351 0.000200 0.082600 0.227000 -1.514173 0.407511 -0.420294 19.256442 2.382665 -32.983933 -3.184264 -12.265597 34.043709 -0.059879 -12.910644 22.251293 -0.844300 -5.860800 16.381000 -1.620901 -1.491589 7.407696 1.733884 -1.839326 -2.066116 3.689345 -1.481296 3.284428 -3.086594 -0.192318 -9.100104 2.393600 0.571225 31.102966 0.289100 0.743700 12.115900 9.464523 4.953570 0.122272 -94.708911 -15.648684 39.187369 9.424245 -19.862643 -1.713329 0.024896 -0.613903 -20.646625 29.017703 -10.700195 -5.553500 -7.125000 0.000000 0.000000 1.557700 18.546100 -0.981700 -8.191907 -4.000519 0.172964 94.438302 2.169990 17.677684 -10.513337 22.259017 -2.355150 0.654188 0.865508 30.939759 -20.414196 -21.415222 8.174600 7.125000 0.000000 0.000000 8.841600 -53.675800 -1.897600 
0.231826 23.783126 -7.234593 -1.782820 0.529086 8.108229 -0.535522 -0.913501 -0.478583 -13.159916 3.914305 -31.946502 0.886572 9.237079 24.763070 1.109028 7.279111 26.438606 0.000300 -0.112300 -0.308400 -1.473399 0.433369 -0.432296 19.158671 2.356033 -33.022742 -2.867819 -11.852932 32.668380 -0.094808 -12.664211 22.283397 -0.756800 -5.556000 15.501400 -1.632338 -1.525386 7.601667 1.742761 -1.879591 -2.052350 3.710529 -1.506676 3.259891 -3.020083 -0.198696 -9.180574 2.363678 0.565595 31.232307 0.264200 0.747700 12.201500 9.463998 4.965065 0.123802 -94.964915 -15.560384 38.870903 9.167787 -19.431850 -1.620697 0.017596 -0.613359 -20.258918 28.893914 -10.686686 -5.520200 -7.125000 0.000000 0.000000 1.473300 18.571300 -0.927600 -8.184297 -4.008920 0.181206 94.614591 1.852445 17.580617 -10.428460 22.127739 -2.313722 0.663376 0.868575 31.056949 -20.647798 -21.521769 8.316200 7.125000 0.000000 0.000000 8.643400 -53.839200 -1.889200 
0.229295 23.691205 -7.119894 -1.811799 0.622815 7.936857 -0.551962 -0.934531 -0.500014 -13.133280 3.921942 -32.151782 0.835759 9.144415 24.454255 1.076804 7.472730 26.377799 0.002300 -0.309900 -0.851500 -1.427801 0.456423 -0.443036 19.081495 2.322160 -32.974191 -2.550811 -11.412831 31.235279 -0.131430 -12.447934 22.354313 -0.672300 -5.243300 14.603900 -1.591414 -1.560502 7.726463 1.754666 -1.918895 -2.038856 3.709536 -1.529900 3.261200 -2.929362 -0.209104 -9.218768 2.317834 0.551240 31.366574 0.226200 0.750100 12.273000 9.465641 4.979509 0.127853 -95.229701 -15.469879 38.526245 8.905163 -18.987904 -1.528303 0.010061 -0.613076 -19.846250 28.726238 -10.662115 -5.471200 -7.125000 0.000000 0.000000 1.358700 18.613600 -0.854200 -8.175589 -4.020153 0.191654 94.797072 1.538427 17.383021 -10.330711 21.978775 -2.267240 0.673445 0.872559 31.140789 -20.922792 -21.653703 8.486700 7.125000 0.000000 0.000000 8.411300 -54.039000 -1.879100 
0.227271 23.587339 -7.000337 -1.872957 0.720548 7.768602 -0.574209 -0.952748 -0.517180 -13.060284 3.911617 -32.283939 0.775043 9.030353 24.085747 1.048193 7.656839 26.333204 0.006300 -0.514100 -1.412700 -1.377658 0.476256 -0.452751 19.021871 2.295902 -32.841744 -2.242137 -10.955427 29.774315 -0.166808 -12.309106 22.483440 -0.601900 -4.966100 13.811900 -1.497943 -1.594473 7.764669 1.767833 -1.954157 -2.025050 3.681355 -1.549116 3.297833 -2.838378 -0.225674 -9.213884 2.274568 0.523271 31.513377 0.188500 0.747100 12.331600 9.467785 4.997031 0.134722 -95.498866 -15.385742 38.135266 8.631635 -18.522236 -1.434462 0.002001 -0.613138 -19.364737 28.527616 -10.615315 -5.403600 -7.125000 0.000000 0.000000 1.223900 18.684300 -0.767500 -8.167573 -4.034994 0.204872 94.986717 1.240936 17.084379 -10.214304 21.803833 -2.213809 0.683924 0.877179 31.191472 -21.225336 -21.796278 8.675300 7.125000 0.000000 0.000000 8.153600 -54.256900 -1.864300 
0.226056 23.470616 -6.876022 -1.964800 0.808376 7.604081 -0.601651 -0.968348 -0.529667 -12.942540 3.894650 -32.344191 0.702002 8.891198 23.650925 1.028689 7.791092 26.303188 0.012600 -0.723800 -1.989000 -1.323991 0.492725 -0.462073 18.978732 2.296708 -32.630206 -1.950856 -10.493386 28.320106 -0.195098 -12.294963 22.672009 -0.552300 -4.760700 13.227200 -1.358403 -1.623328 7.710241 1.781825 -1.980777 -2.008222 3.628345 -1.562931 3.384689 -2.743523 -0.247411 -9.208754 2.224893 0.489557 31.686118 0.148600 0.741400 12.395600 9.469993 5.019722 0.143610 -95.769337 -15.301946 37.698312 8.357848 -18.054163 -1.343115 -0.005606 -0.613754 -18.805617 28.311897 -10.491729 -5.291300 -7.125000 0.000000 0.000000 1.081700 18.844100 -0.674500 -8.160087 -4.053684 0.219832 95.181478 0.979550 16.676475 -10.083073 21.608998 -2.156306 0.693187 0.881876 31.221726 -21.502085 -21.914202 8.845200 7.125000 0.000000 0.000000 7.912400 -54.444300 -1.844800 
0.225853 23.340834 -6.746644 -2.065362 0.875018 7.431548 -0.635663 -0.980452 -0.534366 -12.802388 3.871811 -32.314837 0.615085 8.723713 23.144079 1.023329 7.851018 26.295974 0.021200 -0.940500 -2.585100 -1.266473 0.504634 -0.470504 18.932081 2.310607 -32.341682 -1.683679 -10.038715 26.909463 -0.216560 -12.397920 22.917264 -0.523900 -4.638700 12.881000 -1.194269 -1.647229 7.573363 1.793443 -2.001101 -1.991917 3.553977 -1.571606 3.503483 -2.683538 -0.270650 -9.180808 2.190728 0.453981 31.886979 0.124900 0.731900 12.459900 9.469721 5.046015 0.154868 -96.031485 -15.195831 37.212155 8.083542 -17.582059 -1.253773 -0.013885 -0.614817 -18.180306 28.094743 -10.365668 -5.178300 -7.125000 0.000000 0.000000 0.938500 19.007000 -0.581800 -8.155546 -4.076008 0.236514 95.368849 0.728692 16.216302 -9.941613 21.401795 -2.096269 0.701209 0.886922 31.228016 -21.752919 -22.018860 8.999900 7.125000 0.000000 0.000000 7.692400 -54.613100 -1.824800 
0.226157 23.197386 -6.612205 -2.181265 0.906504 7.242695 -0.675838 -0.987909 -0.530729 -12.628841 3.851622 -32.187996 0.515174 8.526957 22.563619 1.036780 7.840547 26.345245 0.032800 -1.169000 -3.213900 -1.206882 0.511542 -0.477765 18.895808 2.349553 -31.979380 -1.446381 -9.606133 25.583307 -0.227929 -12.602956 23.183985 -0.510600 -4.580300 12.715200 -1.004834 -1.662116 7.368034 1.802901 -2.010163 -1.974512 3.459229 -1.572967 3.652503 -2.644034 -0.288379 -9.141572 2.161967 0.427940 32.121713 0.111700 0.724400 12.531800 9.467742 5.075232 0.168102 -96.283067 -15.084275 36.675048 7.807443 -17.103468 -1.166183 -0.021628 -0.616206 -17.501647 27.866036 -10.165579 -5.025200 -7.125000 0.000000 0.000000 0.790900 19.254200 -0.485900 -8.152628 -4.100546 0.254672 95.546592 0.511040 15.726827 -9.783311 21.170167 -2.031556 0.708569 0.890901 31.261580 -21.971725 -22.080449 9.124900 7.125000 0.000000 0.000000 7.488400 -54.729900 -1.797300 
0.227068 23.039764 -6.472604 -2.293390 0.902519 7.025938 -0.723593 -0.989719 -0.517208 -12.443045 3.837329 -31.954841 0.404111 8.301630 21.910380 1.072026 7.786964 26.491861 0.047600 -1.407900 -3.871900 -1.146178 0.512671 -0.483304 18.859684 2.389163 -31.554083 -1.242811 -9.209302 24.381997 -0.231347 -12.863312 23.448557 -0.506000 -4.559900 12.657400 -0.813618 -1.668684 7.111086 1.808823 -2.010703 -1.957415 3.354259 -1.568526 3.817068 -2.638898 -0.301159 -9.061421 2.149457 0.407875 32.372350 0.114900 0.716800 12.594700 9.463530 5.105467 0.183990 -96.519540 -14.954566 36.095660 7.533105 -16.624219 -1.081210 -0.029969 -0.617772 -16.800806 27.647129 -9.984547 -4.885800 -7.125000 0.000000 0.000000 0.648400 19.478400 -0.395100 -8.151656 -4.127135 0.274635 95.703144 0.310946 15.251496 -9.612145 20.919721 -1.963608 0.715851 0.893251 31.382079 -22.150906 -22.104691 9.218300 7.125000 0.000000 0.000000 7.311400 -54.799000 -1.766800 
0.228283 22.867767 -6.328041 -2.384061 0.867188 6.770991 -0.779617 -0.984678 -0.492840 -12.267610 3.831684 -31.612028 0.286613 8.053499 21.198751 1.127965 7.733048 26.766113 0.065900 -1.656800 -4.558100 -1.085232 0.507337 -0.486571 18.813871 2.402065 -31.075922 -1.075364 -8.860383 23.340469 -0.228129 -13.140424 23.690078 -0.503600 -4.549200 12.627200 -0.640649 -1.670940 6.813775 1.809300 -2.009166 -1.941498 3.241813 -1.561773 3.990191 -2.656080 -0.305289 -8.941778 2.145229 0.399057 32.643829 0.128900 0.712300 12.652300 9.457099 5.136543 0.202331 -96.736715 -14.803257 35.456034 7.262061 -16.147193 -0.999568 -0.038452 -0.619418 -16.067796 27.429500 -9.792404 -4.742600 -7.125000 0.000000 0.000000 0.506600 19.714400 -0.306000 -8.152530 -4.155387 0.295984 95.831226 0.110291 14.835462 -9.433583 20.659254 -1.894338 0.723509 0.893690 31.649100 -22.281633 -22.107681 9.281100 7.125000 0.000000 0.000000 7.177700 -54.834900 -1.740500 
0.230004 22.681699 -6.178012 -2.436294 0.808475 6.470963 -0.844709 -0.971584 -0.457315 -12.126526 3.838800 -31.160495 0.168389 7.790810 20.447975 1.198225 7.740238 27.180962 0.086300 -1.894400 -5.214000 -1.025064 0.495004 -0.487296 18.746985 2.367610 -30.552625 -0.945196 -8.569554 22.485537 -0.219091 -13.408805 23.894796 -0.502300 -4.543300 12.610500 -0.505607 -1.671395 6.477875 1.803848 -2.009813 -1.926176 3.131485 -1.556182 4.174477 -2.698397 -0.304182 -8.788556 2.153598 0.396268 32.943625 0.155100 0.709000 12.709200 9.448097 5.168135 0.222956 -96.936645 -14.638597 34.756172 6.993819 -15.671760 -0.920943 -0.047712 -0.620960 -15.291304 27.208007 -9.625092 -4.613200 -7.125000 0.000000 0.000000 0.359800 19.922000 -0.215700 -8.154766 -4.185353 0.318917 95.928479 -0.071252 14.463954 -9.233272 20.363872 -1.818428 0.732654 0.891332 32.136558 -22.362194 -22.086262 9.311200 7.125000 0.000000 0.000000 7.088400 -54.834000 -1.718600 
0.232130 22.481559 -6.022821 -2.459390 0.733081 6.122981 -0.917429 -0.949081 -0.411599 -12.016244 3.863112 -30.608947 0.056513 7.524959 19.686849 1.275773 7.859185 27.731568 0.104800 -2.087900 -5.748700 -0.966789 0.475377 -0.484933 18.670868 2.284171 -29.984933 -0.851565 -8.342770 21.830287 -0.206508 -13.660938 24.070156 -0.503200 -4.547300 12.621900 -0.394053 -1.671527 6.108415 1.793170 -2.013199 -1.911137 3.013872 -1.551982 4.370266 -2.715256 -0.297265 -8.620977 2.138222 0.403906 33.272133 0.167500 0.711800 12.773700 9.438725 5.201567 0.245011 -97.112422 -14.457531 34.003690 6.738399 -15.215927 -0.848724 -0.057230 -0.622337 -14.460114 26.958483 -9.456602 -4.479400 -7.125000 0.000000 0.000000 0.192000 20.132700 -0.114200 -8.156275 -4.216019 0.342453 95.998754 -0.235013 14.139615 -9.016460 20.041347 -1.737666 0.743202 0.886827 32.820163 -22.402726 -22.063363 9.321700 7.125000 0.000000 0.000000 7.041800 -54.822700 -1.705200 
0.234661 22.267551 -5.862871 -2.456224 0.651501 5.726130 -0.995616 -0.916400 -0.356415 -11.940631 3.905312 -29.970493 -0.042676 7.269741 18.952200 1.353025 8.110994 28.383622 0.116900 -2.204800 -6.071900 -0.911163 0.448036 -0.478662 18.585389 2.160531 -29.367317 -0.792027 -8.180825 21.373886 -0.191020 -13.895469 24.219335 -0.510200 -4.578600 12.710500 -0.300882 -1.672426 5.707494 1.777529 -2.020216 -1.898537 2.888550 -1.548819 4.568436 -2.728840 -0.289476 -8.424877 2.122368 0.410115 33.627703 0.179300 0.714800 12.840200 9.428198 5.235114 0.268308 -97.264562 -14.260111 33.208805 6.497265 -14.781364 -0.782659 -0.067688 -0.623417 -13.559075 26.698750 -9.317213 -4.360400 -7.125000 0.000000 0.000000 0.014500 20.310400 -0.008600 -8.158171 -4.247367 0.367080 96.050992 -0.374148 13.814113 -8.774723 19.675883 -1.649026 0.755388 0.880271 33.664038 -22.422063 -22.036799 9.320700 7.125000 0.000000 0.000000 7.016600 -54.803000 -1.695700 
